<svg width="165" height="165" viewBox="0 0 165 165" fill="none" xmlns="http://www.w3.org/2000/svg">
<path d="M50.4848 16.4223C44.2851 25.7271 43.5214 36.6031 47.3398 46.066C58.3991 44.6622 68.6894 38.9486 74.8904 29.6424C81.0914 20.3363 81.8537 9.46422 78.0354 0C66.9748 1.40383 56.6844 7.11742 50.4848 16.4223Z" fill="#286F0D"/>
<path d="M48.6969 59.4177C47.3927 59.4177 46.2545 58.4562 46.0685 57.1267L45.5147 52.9684C45.5147 44.0208 40.8928 35.7532 33.1485 30.8564C31.9081 30.0715 31.5402 28.4313 32.3238 27.1908C33.1074 25.9516 34.7489 25.5811 35.9881 26.366C45.2252 32.2098 50.7621 42.0724 50.8246 52.7811L51.3279 56.3963C51.5298 57.8492 50.5164 59.1906 49.0635 59.3925C48.9413 59.4098 48.8178 59.4177 48.6969 59.4177Z" fill="#63271D"/>
<path d="M47.94 147.137C51.8632 151.135 57.8199 152.471 63.0155 150.379C83.9627 141.943 91.367 118.632 93.2383 112.21C97.2347 99.4166 96.8867 88.5206 95.354 80.4974C92.4574 65.3342 80.0673 53.6919 65.0276 52.9986C64.495 52.9747 63.9598 52.9614 63.4219 52.9614C62.289 52.9614 61.2757 53.0172 60.3433 53.1248C52.943 53.9801 45.4444 53.9801 38.0441 53.1248C37.1104 53.0172 36.0984 52.9614 34.9655 52.9614C15.8073 52.9614 2.86738 66.9705 0.276209 88.0027C-1.59379 103.154 5.84504 141.085 32.6453 151.033C37.9684 153.009 43.9662 151.498 47.7912 147.301L47.94 147.137Z" fill="#EB8102"/>
<path d="M19.4861 88.0027C21.5607 71.1594 30.2785 58.8278 43.5066 54.5817C40.9739 53.5365 38.5872 52.9614 34.9628 52.9614C15.8046 52.9614 2.86466 66.9705 0.27349 88.0027C-1.59385 103.155 5.84763 141.096 32.6572 151.035C37.4172 152.801 42.7071 151.77 46.5095 148.528C24.0695 135.86 17.7503 102.091 19.4861 88.0027Z" fill="#E37303"/>
<path d="M11.2511 88.003C13.5621 69.2393 24.1167 56.0736 39.9692 53.4505C38.5136 53.1331 36.9225 52.9604 34.9608 52.9604C15.8026 52.9604 2.86271 66.9695 0.271536 88.0017C-1.59581 103.154 5.84567 141.095 32.6552 151.035C36.0565 152.296 39.7301 152.128 42.9389 150.748C16.7058 140.411 9.40107 103.023 11.2511 88.003Z" fill="#D97102"/>
<path d="M50.1585 145.913C26.6799 107.355 47.2778 86.3638 48.5063 84.7874C48.8769 84.3145 44.6255 82.2467 43.8353 81.8774C40.4831 86.5578 21.9797 109.036 45.4224 148.689C45.5194 148.852 45.6402 148.988 45.7624 149.123C46.4862 148.587 47.1689 147.984 47.7905 147.301L47.9392 147.138C48.5834 147.794 49.2873 148.371 50.0283 148.881C50.63 148.029 50.7362 146.863 50.1585 145.913Z" fill="#BF6302"/>
<path d="M126.699 160.906C129.775 164.086 134.436 165.148 138.505 163.487C154.923 156.781 160.727 138.243 162.194 133.135C165.325 122.963 165.052 114.3 163.851 107.921C161.581 95.8653 151.873 86.6082 140.088 86.057C139.671 86.0371 139.252 86.0278 138.831 86.0278C138.153 86.0278 137.533 86.0531 136.951 86.1035C130.775 86.6361 124.588 86.6361 118.412 86.1035C117.832 86.0531 117.21 86.0278 116.533 86.0278C101.521 86.0278 91.3819 97.1668 89.3512 113.889C87.889 125.937 93.7181 156.102 114.726 164.006C118.894 165.575 123.586 164.374 126.585 161.036L126.699 160.906Z" fill="#EA9735"/>
<path d="M126.912 136.845C133.365 136.845 138.596 129.858 138.596 121.24C138.596 112.622 133.365 105.636 126.912 105.636C120.459 105.636 115.229 112.622 115.229 121.24C115.229 129.858 120.459 136.845 126.912 136.845Z" fill="#3E1A01"/>
<path d="M162.193 123.529C160.727 128.635 154.924 147.175 138.505 153.88C134.435 155.542 129.775 154.479 126.699 151.3L126.582 151.43C123.584 154.768 118.892 155.968 114.723 154.4C97.9383 148.084 90.8487 127.565 89.421 113.423C89.3998 113.581 89.3679 113.731 89.3493 113.891C87.887 125.938 93.7162 156.104 114.724 164.007C118.892 165.576 123.584 164.375 126.583 161.038L126.7 160.908C129.776 164.087 134.436 165.15 138.506 163.488C154.924 156.782 160.728 138.244 162.194 133.136C164.669 125.097 165.014 118.006 164.457 112.234C164.129 115.733 163.429 119.511 162.193 123.529Z" fill="#C96A0A"/>
</svg>
